<svg xmlns="http://www.w3.org/2000/svg" viewBox="0 0 1200 630" fill="none">
  <rect width="1200" height="630" fill="#0a0a0b"/>
  <rect width="1200" height="630" fill="url(#bg)" opacity="0.4"/>
  <defs>
    <linearGradient id="bg" x1="0" y1="0" x2="1200" y2="630">
      <stop offset="0%" stop-color="#0d1a0f"/>
      <stop offset="100%" stop-color="#0a0a0b"/>
    </linearGradient>
    <linearGradient id="accent" x1="0" y1="0" x2="1200" y2="0">
      <stop offset="0%" stop-color="#22c55e"/>
      <stop offset="50%" stop-color="#4ade80"/>
      <stop offset="100%" stop-color="#22c55e"/>
    </linearGradient>
  </defs>
  <g transform="translate(80, 40)">
    <circle cx="24" cy="24" r="20" stroke="#4db8c9" stroke-width="1.5" fill="none" opacity="0.4"/>
    <line x1="24" y1="2" x2="24" y2="8" stroke="#4db8c9" stroke-width="1.2" stroke-linecap="round" opacity="0.4"/>
    <line x1="46" y1="24" x2="40" y2="24" stroke="#4db8c9" stroke-width="1.2" stroke-linecap="round" opacity="0.4"/>
    <line x1="24" y1="46" x2="24" y2="40" stroke="#4db8c9" stroke-width="1.2" stroke-linecap="round" opacity="0.4"/>
    <line x1="2" y1="24" x2="8" y2="24" stroke="#4db8c9" stroke-width="1.2" stroke-linecap="round" opacity="0.4"/>
    <polygon points="24,8 21,24 24,21 27,24" fill="#1a6b7a"/>
    <polygon points="24,40 27,24 24,27 21,24" fill="#4db8c9" opacity="0.4"/>
    <circle cx="24" cy="24" r="2" fill="#4db8c9"/>
  </g>
  <text x="140" y="72" font-family="Inter, system-ui, sans-serif" font-size="28" font-weight="700" fill="#fafafa" letter-spacing="-0.02em">Dev Guide</text>
  <text x="80" y="300" font-family="Inter, system-ui, sans-serif" font-size="52" font-weight="800" fill="#22c55e" letter-spacing="-0.03em">Tutorial</text>
  <text x="80" y="360" font-family="Inter, system-ui, sans-serif" font-size="22" fill="#a1a1aa">Step-by-step guides for modern developer workflows.</text>
  <g transform="translate(800, 140)" opacity="0.2">
    <rect width="320" height="200" rx="10" stroke="#22c55e" stroke-width="1.5" fill="none"/>
    <line x1="0" y1="30" x2="320" y2="30" stroke="#22c55e" stroke-width="0.8"/>
    <circle cx="18" cy="15" r="5" fill="#ef4444" opacity="0.6"/>
    <circle cx="36" cy="15" r="5" fill="#f59e0b" opacity="0.6"/>
    <circle cx="54" cy="15" r="5" fill="#22c55e" opacity="0.6"/>
    <text x="20" y="58" font-family="JetBrains Mono, monospace" font-size="13" fill="#4ade80">$ npm install</text>
    <text x="20" y="82" font-family="JetBrains Mono, monospace" font-size="13" fill="#94a3b8">added 245 packages</text>
    <text x="20" y="110" font-family="JetBrains Mono, monospace" font-size="13" fill="#4ade80">$ npm run build</text>
    <rect x="20" y="125" width="100" height="12" rx="2" fill="#22c55e" opacity="0.3"/>
    <rect x="20" y="125" width="65" height="12" rx="2" fill="#4ade80" opacity="0.4"/>
  </g>
  <g opacity="0.15">
    <circle cx="750" cy="430" r="18" stroke="#22c55e" stroke-width="1.5" fill="#22c55e" fill-opacity="0.2"/>
    <text x="746" y="436" font-family="Inter, sans-serif" font-size="14" font-weight="600" fill="#4ade80">1</text>
    <line x1="768" y1="430" x2="800" y2="430" stroke="#22c55e" stroke-width="1"/>
    <circle cx="818" cy="430" r="18" stroke="#22c55e" stroke-width="1.5" fill="#22c55e" fill-opacity="0.2"/>
    <text x="813" y="436" font-family="Inter, sans-serif" font-size="14" font-weight="600" fill="#4ade80">2</text>
    <line x1="836" y1="430" x2="868" y2="430" stroke="#22c55e" stroke-width="1"/>
    <circle cx="886" cy="430" r="18" stroke="#4ade80" stroke-width="1.5" fill="none"/>
    <text x="881" y="436" font-family="Inter, sans-serif" font-size="14" font-weight="600" fill="#4ade80">3</text>
  </g>
  <text x="80" y="570" font-family="Inter, system-ui, sans-serif" font-size="18" fill="#71717a">devguide.co.uk</text>
  <rect x="0" y="624" width="1200" height="6" fill="url(#accent)"/>
</svg>
